:SAMPLES-PER-SECOND 30
:FULLY-SPECIFIED
:DEGREES
321
root  6.40936 35.0024 28.4901 -174.378 4.90637 170.376
RightUpLeg  -37.2118 -10.5571 -26.7447
RightLeg  47.7668 -7.13974 -8.66823
RightFoot  -2.82921 -2.08218 27.2205
RightToes  -1.74624e-010 0 -3.6325e-017
Spine  23.054 -4.27293 11.5378
Spine1  6.29411 1.15344 -12.2609
HEad  -23.9374 6.79427 -6.1793
LeftShoulder1  1.21274 -2.27713 -14.0518
LeftArm  16.5256 16.9905 -58.8364
LeftForeArm  110.948 -73.2926 -138.224
LeftHand  -1.70839 -1.28015 29.4239
RightShoulder  0.0415831 -7.82226 -10.638
RightArm  -55.1697 32.4402 0.366435
RightForeArm  7.7926 65.8222 25.577
RightHand  -2.44068 4.73059 -27.7465
LeftUpLeg  -21.31 -4.00063 11.5609
LeftLeg  43.0434 7.73058 8.06498
LeftFoot  -17.0821 -0.711192 -16.0584
LeftToes  -5.82109e-011 1.10366e-010 -8.03124e-011
322
root  6.47004 35.2299 28.4316 -175.146 4.48642 170.246
RightUpLeg  -35.5314 -10.3249 -27.0317
RightLeg  46.72 -7.17334 -8.39835
RightFoot  -2.14606 -2.3086 27.9959
RightToes  -1.74624e-010 0 -3.6325e-017
Spine  22.7843 -4.00682 9.92701
Spine1  7.49516 0.767567 -10.7929
HEad  -23.1707 7.13582 -5.90448
LeftShoulder1  1.27887 -2.44742 -14.6107
LeftArm  16.7588 17.4736 -58.5505
LeftForeArm  108.474 -74.7591 -133.366
LeftHand  -1.6438 -1.33602 28.0807
RightShoulder  -0.0311339 -6.62827 -8.3509
RightArm  -51.8256 32.6835 8.91563
RightForeArm  8.81947 66.0464 25.8615
RightHand  -2.58278 5.10803 -28.2932
LeftUpLeg  -21.066 -3.79994 11.5072
LeftLeg  43.1525 6.26653 6.66801
LeftFoot  -14.76 -0.323606 -13.7342
LeftToes  -5.82109e-011 1.10366e-010 -8.03124e-011
323
root  6.39276 35.6029 28.3199 -175.851 4.44499 170.29
RightUpLeg  -33.272 -10.802 -26.9539
RightLeg  44.1246 -7.25148 -7.76571
RightFoot  -1.3769 -2.43482 27.3401
RightToes  -1.74624e-010 0 -3.6325e-017
Spine  22.1013 -3.59774 8.69648
Spine1  8.61459 0.724151 -9.97909
HEad  -22.5794 7.01244 -6.00623
LeftShoulder1  1.27233 -2.38494 -14.7369
LeftArm  17.7729 16.4126 -57.7589
LeftForeArm  104.377 -76.1286 -127.315
LeftHand  -1.32064 -0.792224 24.6426
RightShoulder  -0.0452984 -4.69901 -4.9215
RightArm  -44.8744 29.398 17.927
RightForeArm  7.73328 66.3271 26.4293
RightHand  -2.54203 5.27328 -27.451
LeftUpLeg  -20.1693 -3.53233 11.4738
LeftLeg  42.2897 5.08624 5.3451
LeftFoot  -13.2077 -0.107273 -11.5003
LeftToes  -5.82109e-011 1.10366e-010 -8.03124e-011
324
root  6.19955 36.0206 28.1587 -176.292 4.54408 170.48
RightUpLeg  -30.9705 -12.4153 -26.6361
RightLeg  40.7729 -6.99218 -6.69812
RightFoot  -0.233136 -2.56621 25.9542
RightToes  -1.74624e-010 0 -3.6325e-017
Spine  21.1255 -2.96383 7.13869
Spine1  9.33137 0.654996 -8.59514
HEad  -22.2461 6.86434 -6.26884
LeftShoulder1  1.21518 -2.10606 -14.7968
LeftArm  18.6537 15.0845 -57.2202
LeftForeArm  101.76 -76.9365 -122.85
LeftHand  -0.985352 -0.128158 20.7277
RightShoulder  0.0587388 -2.80123 -0.23205
RightArm  -36.2555 23.7057 24.4102
RightForeArm  7.50909 68.5985 30.3859
RightHand  -2.29559 4.9413 -25.6523
LeftUpLeg  -18.8006 -3.47229 11.6615
LeftLeg  40.1906 5.0396 4.93569
LeftFoot  -12.0298 0.00943738 -10.4462
LeftToes  -5.82109e-011 1.10366e-010 -8.03124e-011
325
root  5.90967 36.4037 27.9518 -176.727 4.53224 170.817
RightUpLeg  -28.3605 -14.3731 -26.4362
RightLeg  37.0713 -6.25881 -5.31384
RightFoot  1.07267 -2.79429 25.3615
RightToes  -1.74624e-010 0 -3.6325e-017
Spine  19.6099 -2.40882 4.91001
Spine1  10.4189 0.162487 -6.45573
HEad  -21.9864 7.23065 -6.28924
LeftShoulder1  1.06697 -1.46879 -14.5584
LeftArm  18.8233 13.9705 -57.5334
LeftForeArm  101.287 -77.2498 -121.023
LeftHand  -0.768735 0.361899 17.7948
RightShoulder  0.261956 -1.39969 4.71472
RightArm  -27.3437 17.5606 29.3007
RightForeArm  9.06836 71.9604 38.4001
RightHand  -1.91309 4.02719 -23.5323
LeftUpLeg  -16.9043 -3.50535 12.1127
LeftLeg  36.6751 5.47433 4.74142
LeftFoot  -10.3897 0.147928 -10.297
LeftToes  -5.82109e-011 1.10366e-010 -8.03124e-011
326
root  5.487 36.7458 27.7176 -177.27 4.25093 171.397
RightUpLeg  -25.1277 -15.762 -26.4844
RightLeg  32.8588 -5.80845 -4.26303
RightFoot  2.55605 -3.1464 25.5605
RightToes  -1.74624e-010 0 -3.6325e-017
Spine  17.4592 -2.39539 2.80998
Spine1  12.1707 -0.808048 -4.50268
HEad  -21.5281 8.29449 -6.04978
LeftShoulder1  0.855711 -0.607717 -13.8483
LeftArm  18.7045 12.8553 -58.3423
LeftForeArm  100.652 -77.3606 -120.215
LeftHand  -0.665602 0.761329 16.7195
RightShoulder  0.467954 -0.603424 8.83512
RightArm  -19.0137 11.4175 34.7163
RightForeArm  15.905 75.1378 50.6929
RightHand  -1.56087 3.03173 -21.5339
LeftUpLeg  -14.6916 -3.91607 12.6841
LeftLeg  32.279 5.11962 3.84952
LeftFoot  -8.64846 0.3138 -11.0357
LeftToes  -5.82109e-011 1.10366e-010 -8.03124e-011
327
root  4.87934 37.0618 27.505 -177.818 4.04321 172.145
RightUpLeg  -21.6771 -16.0899 -26.7225
RightLeg  28.0657 -6.43821 -3.9264
RightFoot  4.79071 -3.64364 25.5547
RightToes  -1.74624e-010 0 -3.6325e-017
Spine  15.2581 -2.82269 1.30923
Spine1  13.7822 -1.91893 -3.2288
HEad  -20.8947 9.74606 -5.78621
LeftShoulder1  0.698767 0.0403633 -13.1577
LeftArm  18.8513 11.6072 -58.9765
LeftForeArm  98.6642 -77.5461 -118.535
LeftHand  -0.668087 0.974474 17.5345
RightShoulder  0.652071 -0.0961146 12.1299
RightArm  -11.9594 4.54157 40.6313
RightForeArm  31.2882 77.4423 67.5588
RightHand  -1.28873 2.31737 -19.4604
LeftUpLeg  -12.4921 -4.99126 13.043
LeftLeg  28.173 3.78524 2.54484
LeftFoot  -8.02232 0.447905 -13.8427
LeftToes  -5.82109e-011 1.10366e-010 -8.03124e-011
328
root  4.07407 37.3371 27.3591 -178.284 4.60683 172.813
RightUpLeg  -18.7582 -15.1687 -27.128
RightLeg  22.8745 -7.86017 -3.80392
RightFoot  8.17838 -4.34193 25.1927
RightToes  -1.74624e-010 0 -3.6325e-017
Spine  13.5444 -3.11802 -0.0663082
Spine1  14.757 -2.75992 -2.18035
HEad  -20.4785 11.1634 -5.66885
LeftShoulder1  0.648896 0.253427 -12.9157
LeftArm  19.3016 10.2627 -59.4697
LeftForeArm  95.9972 -77.9292 -115.195
LeftHand  -0.773223 0.746972 19.2915
RightShoulder  0.859866 0.438251 15.0816
RightArm  -6.96639 -2.78436 45.4612
RightForeArm  52.3177 78.3832 88.1172
RightHand  -1.00616 1.65089 -16.6527
LeftUpLeg  -10.4195 -5.7532 12.8467
LeftLeg  25.2255 2.48711 1.61579
LeftFoot  -8.79435 0.46002 -18.3551
LeftToes  -5.82109e-011 1.10366e-010 -8.03124e-011
329
root  3.11287 37.5603 27.2775 -178.614 6.13104 173.316
RightUpLeg  -16.5729 -14.0035 -27.465
RightLeg  17.0488 -8.93811 -3.46585
RightFoot  12.7271 -5.24058 24.6541
RightToes  -1.74624e-010 0 -3.6325e-017
Spine  12.0849 -3.04989 -1.80303
Spine1  15.6181 -3.33119 -0.805614
HEad  -20.5089 12.569 -5.92894
LeftShoulder1  0.649334 0.266717 -13.0185
LeftArm  19.9488 8.79363 -60.1116
LeftForeArm  93.2748 -78.3744 -110.873
LeftHand  -0.936572 0.252355 21.125
RightShoulder  1.04301 0.865206 17.3558
RightArm  -3.95488 -8.96348 48.9068
RightForeArm  71.0782 77.7672 108
RightHand  -0.716523 0.836885 -13.4483
LeftUpLeg  -8.50873 -4.40582 12.0847
LeftLeg  23.3325 1.55233 1.07344
LeftFoot  -10.1773 0.281542 -21.358
LeftToes  -5.82109e-011 1.10366e-010 -8.03124e-011
330
root  2.07521 37.7292 27.2437 -178.794 7.95079 173.699
RightUpLeg  -14.805 -15.4737 -27.1181
RightLeg  10.3551 -8.48863 -3.27314
RightFoot  18.2694 -6.02438 23.0492
RightToes  -1.74624e-010 0 -3.6325e-017
Spine  10.5602 -2.94532 -3.87344
Spine1  16.6872 -4.00674 0.911971
HEad  -20.7307 14.2305 -6.74377
LeftShoulder1  0.640032 0.361482 -13.3611
LeftArm  21.0069 7.07159 -60.4769
LeftForeArm  90.4327 -78.6844 -106.97
LeftHand  -1.06452 -0.00625334 22.8434
RightShoulder  1.09019 0.914161 18.2156
RightArm  -1.70561 -12.9288 52.105
RightForeArm  82.7306 76.2042 122.174
RightHand  -0.513018 0.0841408 -10.9597
LeftUpLeg  -7.05719 -1.08345 10.9765
LeftLeg  22.1385 0.575258 0.595666
LeftFoot  -11.8221 -0.0121044 -20.6157
LeftToes  -5.82109e-011 1.10366e-010 -8.03124e-011
331
root  1.05136 37.8294 27.2904 -178.959 9.33566 173.819
RightUpLeg  -13.3255 -18.4985 -26.8185
RightLeg  4.66174 -9.1255 -3.01184
RightFoot  23.3707 -6.03129 19.671
RightToes  -1.74624e-010 0 -3.6325e-017
Spine  9.45733 -3.01822 -6.07704
Spine1  17.3687 -4.86801 2.56544
HEad  -20.8389 15.8714 -7.69529
LeftShoulder1  0.641877 0.435829 -13.9611
LeftArm  22.6615 4.90142 -60.0198
LeftForeArm  86.1853 -78.8994 -102.698
LeftHand  -1.07801 0.203116 24.0234
RightShoulder  1.01754 0.658022 17.971
RightArm  0.604765 -14.7162 55.4045
RightForeArm  89.2309 74.7455 130.008
RightHand  -0.39448 -0.43704 -9.25479
LeftUpLeg  -6.45509 1.49575 9.42432
LeftLeg  21.8146 0.263651 0.458071
LeftFoot  -13.7885 -0.298995 -17.7557
LeftToes  -5.82109e-011 1.10366e-010 -8.03124e-011
332
root  0.119939 37.8968 27.4637 -179.277 10.3395 173.55
RightUpLeg  -12.8699 -19.519 -27.1632
RightLeg  3.56421 -12.7206 -2.63622
RightFoot  24.7993 -5.22416 16.4226
RightToes  -1.74624e-010 0 -3.6325e-017
Spine  9.36318 -2.96445 -8.09172
Spine1  17.2825 -5.39757 3.67634
HEad  -20.9224 16.7918 -7.95837
LeftShoulder1  0.711045 0.175955 -14.4543
LeftArm  24.4476 2.33191 -59.2295
LeftForeArm  78.6813 -79.1106 -95.2773
LeftHand  -0.990858 0.63519 24.0588
RightShoulder  0.956353 0.436161 17.7891
RightArm  2.697 -14.6192 57.7812
RightForeArm  93.1207 73.8155 133.903
RightHand  -0.282694 -1.07786 -7.50117
LeftUpLeg  -6.55349 1.48691 7.36517
LeftLeg  22.2346 1.71117 1.11645
LeftFoot  -15.2819 -0.455678 -15.739
LeftToes  -5.82109e-011 1.10366e-010 -8.03124e-011
333
root  -0.660047 38.019 27.7276 -179.579 11.4512 173.257
RightUpLeg  -13.9247 -19.2944 -26.72
RightLeg  7.75549 -15.2453 -3.33865
RightFoot  21.0766 -4.56435 16.1678
RightToes  -1.74624e-010 0 -3.6325e-017
Spine  9.85207 -2.55764 -9.35303
Spine1  16.9291 -5.23412 4.02858
HEad  -21.2121 16.9002 -7.36077
LeftShoulder1  0.841432 -0.442869 -14.4169
LeftArm  25.5241 0.144763 -59.0029
LeftForeArm  69.602 -79.1444 -85.9312
LeftHand  -0.930185 0.848022 23.6645
RightShoulder  0.959507 0.425596 17.9463
RightArm  4.29978 -12.9451 58.6407
RightForeArm  94.1745 73.3038 135.654
RightHand  -0.18111 -1.95804 -5.88833
LeftUpLeg  -6.79733 0.543031 5.52891
LeftLeg  22.4778 3.91589 2.12114
LeftFoot  -15.3443 -0.438117 -15.0724
LeftToes  -5.82109e-011 1.10366e-010 -8.03124e-011
